HIERARCHY
ROOT Hips
{
	OFFSET -3.958830 18.904000 13.208200
	CHANNELS 6 Xposition Yposition Zposition Zrotation Yrotation Xrotation 
	JOINT LHipJoint
	{
		OFFSET 0.000000 0.000000 0.000000
		CHANNELS 3 Zrotation Yrotation Xrotation
		JOINT LeftUpLeg
		{
			OFFSET 1.800000 -1.400000 0.085000
			CHANNELS 3 Zrotation Yrotation Xrotation
			JOINT LeftLeg
			{
				OFFSET 2.215000 -6.000000 0.000000
				CHANNELS 3 Zrotation Yrotation Xrotation
				JOINT LeftFoot
				{
					OFFSET 2.500000 -6.900000 0.000000
					CHANNELS 3 Zrotation Yrotation Xrotation
					JOINT LeftToeBase
					{
						OFFSET 0.200000 -0.500000 1.950000
						CHANNELS 3 Zrotation Yrotation Xrotation
						End Site
						{
							OFFSET 0.000000 0.000000 0.000000
						}
					}
				}
			}
		}
	}
	JOINT RHipJoint
	{
		OFFSET 0.000000 0.000000 0.000000
		CHANNELS 3 Zrotation Yrotation Xrotation
		JOINT RightUpLeg
		{
			OFFSET -1.800000 -1.400000 0.085000
			CHANNELS 3 Zrotation Yrotation Xrotation
			JOINT RightLeg
			{
				OFFSET -2.215000 -6.000000 0.000000
				CHANNELS 3 Zrotation Yrotation Xrotation
				JOINT RightFoot
				{
					OFFSET -2.500000 -6.900000 0.000000
					CHANNELS 3 Zrotation Yrotation Xrotation
					JOINT RightToeBase
					{
						OFFSET -0.200000 -0.500000 1.950000
						CHANNELS 3 Zrotation Yrotation Xrotation
						End Site
						{
							OFFSET 0.000000 0.000000 0.000000
						}
					}
				}
			}
		}
	}
	JOINT LowerBack
	{
		OFFSET 0.000000 0.000000 0.000000
		CHANNELS 3 Zrotation Yrotation Xrotation
		JOINT Spine
		{
			OFFSET -0.087000 1.940000 -0.288900
			CHANNELS 3 Zrotation Yrotation Xrotation
			JOINT Spine1
			{
				OFFSET 0.000000 1.950000 0.060000
				CHANNELS 3 Zrotation Yrotation Xrotation
				JOINT Neck
				{
					OFFSET 0.000000 0.000000 0.000000
					CHANNELS 3 Zrotation Yrotation Xrotation
					JOINT Neck1
					{
						OFFSET 0.000000 1.600000 0.340000
						CHANNELS 3 Zrotation Yrotation Xrotation
						JOINT Head
						{
							OFFSET 0.000000 1.667000 -0.240000
							CHANNELS 3 Zrotation Yrotation Xrotation
							End Site
							{
								OFFSET 0.000000 0.000000 0.000000
							}
						}
					}
				}
				JOINT LeftShoulder
				{
					OFFSET 0.000000 0.000000 0.000000
					CHANNELS 3 Zrotation Yrotation Xrotation
					JOINT LeftArm
					{
						OFFSET 2.700000 1.550000 -0.730000
						CHANNELS 3 Zrotation Yrotation Xrotation
						JOINT LeftForeArm
						{
							OFFSET 5.450000 0.000000 0.000000
							CHANNELS 3 Zrotation Yrotation Xrotation
							JOINT LeftHand
							{
								OFFSET 3.450000 0.000000 0.000000
								CHANNELS 3 Zrotation Yrotation Xrotation
								JOINT LeftHandIndex1
								{
									OFFSET 0.750000 0.000000 0.000000
									CHANNELS 3 Zrotation Yrotation Xrotation
									End Site
									{
										OFFSET 0.000000 0.000000 0.000000
									}
								}
							}
						}
					}
				}
				JOINT RightShoulder
				{
					OFFSET 0.000000 0.000000 0.000000
					CHANNELS 3 Zrotation Yrotation Xrotation
					JOINT RightArm
					{
						OFFSET -2.700000 1.550000 -0.730000
						CHANNELS 3 Zrotation Yrotation Xrotation
						JOINT RightForeArm
						{
							OFFSET -5.450000 0.000000 0.000000
							CHANNELS 3 Zrotation Yrotation Xrotation
							JOINT RightHand
							{
								OFFSET -3.450000 0.000000 0.000000
								CHANNELS 3 Zrotation Yrotation Xrotation
								JOINT RightHandIndex1
								{
									OFFSET -0.750000 0.000000 0.000000
									CHANNELS 3 Zrotation Yrotation Xrotation
									End Site
									{
										OFFSET 0.000000 0.000000 0.000000
									}
								}
							}
						}
					}
				}
			}
		}
	}
}
MOTION
Frames: 14
Frame Time: 0.016667
-0.534230 15.199600 -5.316100 -0.702264 1.232734 -9.063258 -15.387500 13.517900 3.750991 18.582830 -4.148026 -33.037789 13.453087 4.635284 51.668648 0.319899 8.478824 1.277284 0.416330 0.429880 0.407840 18.110521 -10.895242 1.976662 -17.537172 1.693693 -29.647316 -17.982148 0.012187 42.258920 -0.593181 -5.744576 2.081197 0.323740 -0.121860 0.113040 -3.074741 -2.535889 -8.106600 3.435473 -1.247094 35.411397 -3.563050 0.695133 11.730520 2.844939 -0.305903 -8.835811 -3.164730 2.992528 41.339098 -4.231140 5.058360 -12.261840 -5.934631 -10.047062 1.333436 1.766538 -8.568424 -2.824032 -2.714446 -46.826119 2.924683 -3.567862 3.202775 0.254170 -0.013590 0.201050 0.010990 0.232052 11.780445 4.959472 4.155311 7.807484 -3.648991 29.010806 56.175695 14.325457 2.170081 -1.749099 -0.031070 0.131100 -0.100160 -0.155650 
-0.533440 15.229470 -5.328490 -0.694211 1.299540 -8.734301 -15.390328 13.512693 3.766407 18.665219 -4.107826 -33.064774 12.640492 4.994041 50.888708 0.286971 8.351652 1.309295 0.416650 0.429790 0.409570 18.103631 -10.897305 1.974165 -17.542052 1.638750 -29.609805 -17.566078 -0.162829 41.628537 -0.570802 -5.616597 2.121621 0.318860 -0.130260 0.111550 -3.061829 -2.536544 -8.109367 3.278004 -1.158964 35.057534 -3.486613 0.742553 11.808997 2.870853 -0.136465 -9.131658 -2.909956 2.972558 41.888381 -3.940220 5.087420 -12.301800 -5.476566 -10.636253 1.633738 1.279542 -8.726432 -2.724010 -6.329829 -46.826200 4.311080 -3.556099 3.217863 0.262930 -0.022620 0.207640 0.006450 -0.256491 12.280436 5.201027 4.432326 8.250881 -3.270683 33.187724 54.737100 15.744367 2.191647 -1.736312 -0.028070 0.127820 -0.099140 -0.157530 
-0.536980 15.323200 -5.349160 -0.551364 1.271459 -8.242434 -15.358060 13.589946 3.698027 18.293874 -3.960526 -32.295191 11.515735 5.229326 48.501771 0.207345 7.926098 1.444544 0.419470 0.435860 0.403100 18.094468 -11.027836 1.948026 -17.564639 1.354329 -28.829319 -16.388907 -0.578510 38.964356 -0.483428 -5.159813 2.278144 0.316280 -0.130670 0.106070 -3.093283 -2.442233 -8.041808 3.206473 -0.960343 34.164129 -3.632043 0.930353 12.178829 2.771162 -0.050941 -9.516165 -2.903186 3.027025 43.083613 -3.077540 4.912480 -12.004220 -4.582843 -11.194102 1.930423 -0.819213 -9.724525 -2.719208 -10.169139 -47.630600 5.831979 -3.534561 3.228247 0.265150 -0.032860 0.211220 0.009620 -0.940011 12.788449 5.591888 6.674288 9.047938 -2.912837 39.251590 53.284390 17.650555 2.216600 -1.727584 -0.022150 0.129260 -0.101030 -0.149970 
-0.534660 15.453950 -5.371610 -0.530875 1.274627 -7.056473 -15.330965 13.652468 3.638147 18.072917 -3.654357 -31.656212 9.498242 5.702999 44.557011 0.084503 7.275346 1.659733 0.414780 0.431170 0.386710 18.079298 -11.121846 1.950199 -17.829598 1.086276 -28.133107 -14.060539 -1.360688 35.440155 -0.365349 -4.571567 2.480934 0.308970 -0.121970 0.104770 -3.109900 -2.377095 -7.982834 3.278736 -0.683018 32.318023 -3.395283 1.183936 12.370642 2.598035 -0.059999 -10.007309 -3.084412 3.218919 44.204018 -2.252850 4.770560 -11.253380 -3.562989 -11.734757 2.396626 -4.595501 -11.324006 -2.247661 -17.846554 -46.976469 8.667550 -3.527322 3.252352 0.261570 -0.035660 0.207850 0.017270 -1.588959 13.370762 6.029054 10.293786 9.913829 -2.638775 44.623205 51.123855 18.653361 2.240699 -1.717831 -0.018020 0.125900 -0.100790 -0.139430 
-0.521720 15.618680 -5.380410 -0.635549 1.577241 -5.134720 -15.293570 13.703902 3.550336 17.563053 -3.370939 -30.897204 7.376936 5.824612 39.077483 -0.073988 6.360211 1.972254 0.395250 0.408690 0.364390 18.064265 -11.213935 2.002193 -18.236497 0.818897 -27.358309 -10.802839 -2.301971 31.004893 -0.234342 -3.921135 2.710593 0.292850 -0.110650 0.102130 -3.147884 -2.269609 -7.921365 3.631554 -0.497013 29.368629 -3.085156 1.322198 12.368880 2.498395 0.015438 -10.553058 -3.085809 3.244021 45.523544 -1.671770 4.579870 -10.255090 -2.823356 -12.537623 3.017608 -10.112397 -13.284481 -1.596472 -24.385666 -45.169691 10.581878 -3.536795 3.241958 0.256930 -0.032710 0.197330 0.015070 -2.045381 14.107789 6.429833 15.509767 11.313045 -2.244433 47.381098 47.284293 17.596950 2.266357 -1.681489 -0.018980 0.120500 -0.089820 -0.132910 
-0.500760 15.798780 -5.395400 -0.865778 1.936255 -2.778571 -15.241035 13.691190 3.436510 16.687165 -3.141387 -30.047356 5.398067 5.559450 32.646753 -0.229944 5.288849 2.356403 0.387180 0.400300 0.356800 18.067040 -11.274814 2.136046 -18.415788 0.738843 -26.703575 -7.189295 -3.049450 26.061881 -0.132450 -3.322878 2.927128 0.285310 -0.105550 0.099090 -3.236107 -2.059237 -7.862333 4.382555 -0.310392 26.062765 -2.969157 1.483198 12.207833 2.527043 0.289895 -10.871982 -2.514692 2.986926 46.026770 -1.323680 4.458510 -9.799430 -2.294099 -12.923527 3.455027 -16.693009 -15.217237 -0.920773 -28.186543 -43.540981 11.209157 -3.548025 3.223103 0.252800 -0.030910 0.192480 0.014540 -2.548530 14.236497 6.634651 22.054943 12.658565 -1.870926 47.686322 43.656005 15.593640 2.282562 -1.656802 -0.018750 0.118590 -0.087750 -0.129880 
-0.484580 15.982090 -5.407370 -0.985439 2.048354 -0.143230 -15.192418 13.619078 3.327724 15.548756 -3.014261 -28.984409 3.435709 5.137981 26.087672 -0.341225 4.290839 2.734453 0.364860 0.372410 0.331130 18.081151 -11.252019 2.332066 -18.332982 0.885098 -26.352789 -3.837496 -3.457205 21.352617 -0.059320 -2.883888 3.094560 0.266410 -0.089370 0.097460 -3.329880 -1.866221 -7.821641 4.917651 -0.070661 22.437489 -2.670172 1.561549 11.878996 2.384897 0.111490 -11.225926 -2.786867 3.007895 46.101438 -0.859430 4.143790 -8.997430 -1.904559 -13.235542 4.134831 -24.453131 -16.263482 -0.335955 -29.740131 -41.340239 10.587600 -3.560961 3.209730 0.244600 -0.026340 0.177970 0.016000 -2.564181 14.671433 6.714562 29.084835 14.152205 -1.407482 46.219787 38.772303 12.635729 2.315764 -1.621079 -0.020590 0.113500 -0.077750 -0.120990 
-0.477650 16.157670 -5.422900 -1.126323 2.019659 2.295083 -15.156510 13.485261 3.276371 14.459485 -3.009180 -27.847414 1.419312 4.764061 20.360922 -0.401567 3.570016 3.020264 0.343810 0.344560 0.316810 18.102234 -11.194918 2.497044 -17.441875 1.152646 -25.881743 -1.411017 -3.515089 17.525742 -0.020413 -2.595400 3.214095 0.244620 -0.084020 0.096540 -3.410053 -1.666424 -7.791169 5.112833 0.089623 19.058054 -2.604113 1.517299 11.487610 2.332915 0.158493 -11.538219 -2.526762 2.892059 45.756106 -0.742690 4.073530 -8.386270 -1.924832 -13.980260 4.812562 -31.558910 -16.943573 0.290950 -29.551358 -36.681912 8.713424 -3.586124 3.177618 0.239200 -0.024540 0.169920 0.014130 -2.357160 15.326006 6.803230 36.733837 15.477930 -0.992609 42.857628 33.713843 9.406258 2.356850 -1.583977 -0.020620 0.103070 -0.073170 -0.117910 
-0.477210 16.317610 -5.436060 -1.142424 1.955336 4.222572 -15.138104 13.370217 3.277725 13.220056 -3.082435 -26.629571 -0.630663 4.565366 16.268860 -0.417306 3.181001 3.188524 0.325390 0.320740 0.311620 18.117026 -11.147515 2.576743 -15.909080 1.382441 -25.164214 -0.011604 -3.444695 15.258305 -0.005999 -2.433017 3.293247 0.222840 -0.089550 0.090820 -3.451770 -1.546810 -7.751094 5.023458 0.114072 16.337345 -2.588340 1.346838 10.979219 2.293778 0.044232 -11.729579 -2.582477 2.974711 45.083218 -0.955370 4.268260 -8.108020 -2.805230 -14.838916 5.396482 -38.012080 -17.021065 0.695517 -27.267561 -31.065054 6.220435 -3.610466 3.134274 0.239590 -0.030230 0.170040 0.011790 -1.340062 16.212774 6.849752 44.064500 16.369313 -0.738708 37.977114 28.578840 6.381632 2.410393 -1.537996 -0.021250 0.094760 -0.074770 -0.119110 
-0.468930 16.456400 -5.452840 -1.159376 1.390445 5.714704 -15.123940 13.319128 3.271468 11.581997 -3.128127 -25.389986 -2.055414 4.458924 14.024033 -0.396987 2.990863 3.290199 0.289360 0.277270 0.289900 18.127700 -11.150403 2.620058 -14.023074 1.605335 -24.513983 0.995433 -3.488466 14.744975 0.007991 -2.382254 3.340715 0.185840 -0.082060 0.083240 -3.470626 -1.447860 -7.698882 4.813311 0.205926 14.280959 -2.547191 1.279356 10.124791 2.257781 -0.097484 -11.860139 -2.628347 3.227755 44.231665 -0.918820 4.559140 -7.346780 -5.260648 -15.983715 5.995178 -43.451936 -15.964308 0.561007 -23.712364 -25.519838 3.904985 -3.639713 3.094864 0.232910 -0.029880 0.160260 0.010800 1.227886 17.496428 6.902330 50.268144 16.603963 -0.628068 31.683837 23.172466 3.767334 2.481453 -1.475963 -0.023830 0.083940 -0.071010 -0.114550 
-0.452080 16.573490 -5.473290 -1.360487 0.364631 6.733109 -15.099325 13.340026 3.239845 9.635363 -3.056399 -24.000754 -2.863627 4.437880 13.193233 -0.374248 2.899988 3.350153 0.253520 0.231820 0.273880 18.144534 -11.220719 2.640682 -11.577136 1.822444 -23.745204 1.451865 -3.604985 15.705244 0.010189 -2.400461 3.360498 0.146880 -0.080130 0.078810 -3.503914 -1.342927 -7.634040 4.882955 0.257379 12.867769 -2.595920 1.243239 8.963671 2.261621 -0.313229 -11.818371 -2.767879 3.691454 43.538130 -0.988830 5.103020 -6.932650 -8.733733 -16.917460 6.455270 -47.841753 -14.175510 0.149541 -20.042020 -20.214900 2.128655 -3.666117 3.054563 0.237470 -0.033390 0.157130 0.003530 4.710325 18.700842 6.806982 55.699819 16.579875 -0.510670 24.856117 18.038020 1.932176 2.548847 -1.409115 -0.027700 0.073570 -0.062730 -0.115680 
-0.432110 16.660110 -5.484140 -1.330690 -0.396685 7.597489 -15.078423 13.408726 3.225044 7.060977 -3.016359 -22.728923 -3.106930 4.400497 13.166570 -0.333838 2.808031 3.410995 0.213380 0.178500 0.245800 18.158381 -11.299392 2.641868 -9.151969 1.898677 -22.571958 1.593637 -3.780852 17.349550 0.001233 -2.497310 3.353221 0.096990 -0.080240 0.073040 -3.532876 -1.333088 -7.579265 5.088779 0.227347 11.751435 -2.560749 1.164395 7.109979 2.078409 -1.065196 -11.543225 -4.176403 4.128374 42.790861 -0.839650 5.034300 -6.371930 -13.259318 -16.604757 6.483964 -51.060670 -11.450652 -0.761319 -17.056060 -16.566430 1.098724 -3.666068 3.033331 0.240170 -0.047570 0.152600 -0.000470 9.584917 19.055438 6.632361 59.492654 14.838149 -1.294045 19.919498 14.463043 0.990490 2.611334 -1.361138 -0.023940 0.056500 -0.054460 -0.107660 
-0.409610 16.708760 -5.488970 -1.161313 -1.133455 8.524879 -15.076234 13.477504 3.220273 3.906116 -2.976340 -21.394576 -2.671038 4.230521 13.215597 -0.307342 2.702620 3.485164 0.156550 0.105970 0.199850 18.173922 -11.351401 2.607652 -6.797313 1.846984 -21.247165 0.741935 -3.746166 19.099990 -0.000691 -2.616783 3.341240 0.046310 -0.055450 0.067760 -3.538443 -1.394602 -7.478975 5.195243 0.171486 10.467233 -2.436483 1.006232 5.067613 1.844454 -1.964327 -10.808386 -5.796428 4.717542 40.950600 -0.658910 5.040910 -5.762560 -17.471900 -14.714937 5.905317 -54.153517 -8.755770 -1.681903 -14.483649 -13.889721 0.446265 -3.685572 3.007806 0.234080 -0.044050 0.127870 -0.005450 14.230189 17.795663 6.137220 62.588532 12.267585 -2.544558 14.921877 12.510132 0.422697 2.646497 -1.309068 -0.034000 0.047290 -0.030940 -0.098530 
-0.402110 16.714410 -5.492820 -1.167459 -1.816658 9.468941 -15.086533 13.489139 3.212332 1.983727 -2.897880 -20.438518 -2.953104 4.393114 13.915363 -0.253792 2.780211 3.496015 0.109270 0.047160 0.148020 18.192542 -11.340284 2.580399 -4.877416 1.828802 -19.909815 0.453278 -3.829974 20.742278 -0.009216 -2.814937 3.306849 0.008860 -0.008130 0.069210 -3.532977 -1.452779 -7.360002 5.180911 0.216608 9.293175 -2.179856 0.920449 3.096731 1.499880 -2.724048 -9.698448 -6.901294 4.892153 37.546149 -0.487420 4.830130 -5.233000 -20.984769 -11.701461 4.892797 -55.564733 -5.911038 -2.723931 -13.925766 -12.235235 0.171969 -3.719035 3.000467 0.203440 -0.019920 0.087810 0.007090 18.370027 15.211304 5.351298 64.324994 9.103006 -4.200231 11.502241 12.232771 0.060632 2.657769 -1.279787 -0.041360 0.041550 -0.015810 -0.078800 
